<?xml version="1.0" standalone="no"?>
<!DOCTYPE svg PUBLIC "-//W3C//DTD SVG 20010904//EN"
 "http://www.w3.org/TR/2001/REC-SVG-20010904/DTD/svg10.dtd">
<svg version="1.0" xmlns="http://www.w3.org/2000/svg"
 width="884.000000pt" height="884.000000pt" viewBox="0 0 884.000000 884.000000"
 preserveAspectRatio="xMidYMid meet">
<metadata>
Created by potrace 1.14, written by Peter Selinger 2001-2017
</metadata>
<g transform="translate(0.000000,884.000000) scale(0.100000,-0.100000)"
fill="#000000" stroke="none">
<path d="M3840 8195 c0 -7 -15 -9 -36 -7 -22 3 -34 1 -31 -5 3 -5 0 -10 -8
-10 -8 0 -12 4 -9 9 3 4 -6 8 -20 8 -14 0 -26 -6 -26 -12 0 -10 -2 -10 -8 -1
-9 15 -83 13 -95 -2 -6 -6 -10 -5 -14 3 -4 10 -8 10 -21 0 -12 -10 -14 -10 -8
0 4 6 2 12 -3 12 -6 0 -11 -5 -11 -11 0 -8 -6 -7 -17 2 -14 12 -15 12 -9 0 7
-10 -1 -12 -38 -10 -38 4 -45 1 -41 -11 5 -12 4 -13 -6 -2 -7 6 -24 12 -37 12
-16 0 -21 -4 -16 -12 6 -10 4 -10 -8 0 -13 10 -17 10 -21 0 -4 -10 -6 -10 -6
0 -1 6 -8 12 -17 12 -8 0 -13 -3 -10 -8 2 -4 -9 -8 -25 -8 -16 -1 -26 3 -23 8
4 6 -5 3 -18 -6 -14 -9 -27 -13 -31 -10 -10 11 -48 -7 -40 -19 4 -7 -1 -6 -10
2 -13 11 -17 11 -17 1 0 -8 -3 -10 -7 -7 -3 4 -13 2 -20 -5 -11 -9 -16 -9 -22
1 -6 10 -10 9 -14 -3 -4 -9 -11 -16 -17 -16 -6 0 -8 6 -5 13 4 6 -1 3 -9 -7
-10 -13 -16 -15 -16 -7 0 10 -3 11 -13 2 -10 -8 -17 -7 -26 2 -10 9 -12 9 -9
-3 2 -9 -3 -14 -14 -12 -9 1 -19 -2 -23 -8 -3 -5 -19 -10 -35 -10 -16 0 -32
-4 -35 -10 -3 -5 -11 -10 -16 -10 -6 0 -7 5 -3 11 5 8 1 8 -14 0 -12 -6 -23
-15 -27 -20 -3 -5 -17 -8 -31 -5 -16 3 -23 1 -19 -6 9 -14 -8 -13 -24 3 -9 7
-11 8 -7 0 3 -6 -7 -16 -27 -24 -43 -16 -50 -17 -65 -6 -9 7 -11 5 -6 -8 5
-13 4 -16 -4 -11 -7 4 -12 2 -12 -6 0 -10 -2 -10 -9 1 -7 11 -10 10 -18 -4 -7
-12 -13 -14 -17 -6 -4 6 -12 11 -17 11 -6 0 -8 -4 -5 -9 4 -5 -2 -8 -11 -7
-10 2 -21 -2 -25 -8 -5 -8 -8 -7 -8 2 0 7 -5 10 -10 7 -6 -4 -8 -10 -6 -14 4
-6 -18 -11 -61 -14 -7 0 -13 -4 -13 -8 0 -5 -7 -6 -15 -3 -8 4 -15 1 -15 -7 0
-7 -3 -9 -7 -6 -3 4 -14 0 -24 -9 -14 -12 -22 -13 -39 -4 -12 6 -24 9 -28 6
-3 -3 0 -6 7 -6 7 0 9 -5 6 -10 -4 -6 -10 -8 -15 -5 -5 3 -15 -2 -23 -10 -12
-11 -17 -12 -20 -2 -4 9 -6 9 -6 0 -1 -7 -10 -13 -21 -13 -11 0 -20 -4 -20
-10 0 -5 -7 -7 -15 -4 -8 4 -15 2 -15 -4 0 -10 -53 -35 -76 -35 -11 0 -11 -4
-2 -14 6 -8 7 -13 2 -12 -21 4 -45 -2 -40 -9 3 -5 0 -9 -7 -9 -23 0 -108 -44
-114 -59 -4 -11 -8 -12 -19 -3 -12 10 -13 8 -8 -6 6 -15 3 -17 -13 -13 -15 4
-23 0 -26 -13 -3 -11 -12 -19 -21 -19 -9 0 -16 -5 -16 -11 0 -5 -4 -7 -10 -4
-5 3 -10 -2 -11 -12 0 -10 -3 -13 -5 -6 -6 13 -51 -26 -47 -39 2 -4 -3 -5 -11
-2 -7 3 -19 -2 -26 -11 -7 -8 -19 -15 -26 -15 -8 0 -13 -6 -12 -12 2 -7 -3
-12 -10 -10 -7 1 -15 -5 -18 -13 -3 -8 -9 -13 -13 -11 -3 2 -16 -7 -29 -20
-12 -13 -20 -24 -17 -24 3 0 0 -6 -7 -14 -7 -8 -15 -10 -18 -5 -3 4 -11 -1
-19 -12 -9 -16 -9 -19 0 -14 8 5 10 4 5 -4 -4 -6 -11 -9 -16 -6 -5 3 -13 -3
-19 -12 -6 -10 -11 -14 -11 -9 0 4 -14 -6 -30 -24 -19 -20 -36 -30 -46 -26 -8
3 -13 2 -11 -2 3 -4 -7 -16 -21 -26 -14 -11 -22 -14 -17 -6 5 8 -4 6 -23 -5
-17 -10 -29 -22 -26 -26 2 -4 -6 -9 -18 -11 -13 -2 -22 -9 -20 -16 1 -6 -1
-11 -5 -10 -5 0 -16 -2 -26 -7 -15 -6 -16 -10 -5 -16 10 -7 9 -9 -4 -9 -10 0
-18 -5 -18 -11 0 -5 -4 -8 -10 -4 -5 3 -16 -7 -24 -22 -8 -15 -18 -27 -23 -27
-13 2 -43 -22 -36 -29 3 -4 1 -7 -6 -7 -7 0 -9 -5 -5 -12 6 -10 5 -10 -7 -1
-17 14 -39 0 -39 -24 0 -7 -7 -13 -15 -13 -8 0 -15 -7 -15 -15 0 -14 -12 -19
-32 -16 -8 1 -12 -15 -9 -32 1 -5 -3 -5 -9 -2 -7 4 -14 -2 -17 -14 -3 -11 -9
-18 -14 -15 -5 3 -9 0 -9 -6 0 -6 -5 -8 -12 -4 -8 5 -9 2 -5 -9 4 -11 1 -17
-9 -17 -8 0 -12 -4 -9 -10 3 -5 1 -10 -4 -10 -6 0 -11 -7 -11 -16 0 -8 -4 -13
-9 -9 -5 3 -12 -4 -16 -15 -4 -11 -10 -18 -15 -15 -11 7 -22 -24 -13 -37 4 -7
-2 -9 -15 -6 -12 4 -20 2 -17 -2 9 -14 -6 -40 -24 -41 -9 0 -11 -3 -4 -5 8 -4
7 -11 -5 -25 -9 -11 -17 -25 -17 -32 -1 -7 -7 -11 -13 -9 -7 1 -18 -11 -23
-28 -6 -16 -16 -30 -22 -30 -8 0 -7 -3 1 -9 11 -6 10 -10 -3 -15 -10 -4 -15
-12 -11 -22 3 -8 2 -13 -2 -10 -4 2 -16 -3 -27 -11 -20 -16 -20 -16 0 -9 l20
6 -20 -16 c-11 -8 -19 -20 -18 -25 2 -5 -2 -9 -7 -9 -6 0 -10 -7 -10 -16 0 -9
-5 -12 -12 -8 -7 4 -10 4 -6 -1 9 -10 -22 -65 -37 -65 -5 0 -3 -5 5 -10 11 -7
11 -10 2 -10 -7 0 -11 -4 -8 -9 3 -5 -1 -11 -9 -15 -8 -3 -15 -13 -15 -21 0
-9 -4 -13 -10 -10 -14 9 -12 -8 2 -24 9 -10 10 -12 1 -7 -7 4 -17 -2 -23 -14
-6 -11 -7 -20 -3 -20 4 0 2 -4 -6 -9 -8 -5 -16 -18 -17 -28 -2 -9 -8 -19 -13
-21 -6 -2 -11 -13 -11 -23 0 -11 -4 -18 -8 -15 -4 2 -9 -5 -9 -17 -1 -12 -7
-23 -12 -25 -5 -2 -7 -10 -4 -19 4 -11 2 -14 -5 -9 -8 5 -12 0 -12 -13 0 -12
-5 -21 -11 -21 -5 0 -7 -5 -3 -12 4 -6 -1 -17 -11 -25 -13 -9 -14 -13 -5 -13
9 0 7 -5 -6 -15 -14 -11 -16 -15 -4 -15 12 0 11 -3 -3 -11 -9 -6 -15 -14 -12
-20 4 -5 2 -9 -4 -9 -6 0 -7 -7 -4 -17 4 -11 3 -14 -6 -9 -8 6 -11 2 -9 -10 2
-11 -2 -18 -9 -17 -7 2 -10 -3 -7 -11 3 -8 0 -17 -5 -21 -6 -3 -9 -11 -6 -16
4 -5 2 -9 -3 -9 -9 0 -23 -37 -26 -65 -1 -5 -7 -20 -14 -32 -7 -13 -9 -23 -5
-23 4 0 1 -5 -7 -10 -13 -9 -13 -10 0 -10 11 -1 10 -4 -4 -15 -11 -8 -16 -15
-12 -15 5 0 2 -8 -5 -17 -9 -11 -10 -14 -2 -10 11 7 -1 -22 -39 -97 -7 -14 -6
-16 4 -11 7 3 5 0 -4 -8 -21 -16 -24 -31 -5 -22 6 4 1 -2 -12 -13 -15 -12 -22
-25 -18 -35 3 -9 2 -19 -4 -22 -5 -4 -7 -11 -4 -16 4 -5 1 -9 -4 -9 -6 0 -10
-3 -10 -7 1 -5 0 -12 -1 -18 -6 -25 -4 -41 5 -47 6 -5 5 -8 -2 -8 -7 0 -13 -9
-13 -20 0 -11 -6 -20 -12 -20 -9 0 -8 -4 2 -10 13 -9 13 -10 -1 -10 -11 0 -15
-9 -13 -30 1 -22 -2 -30 -14 -30 -10 0 -13 -3 -7 -8 14 -10 17 -32 4 -32 -8 0
-7 -5 1 -16 11 -12 11 -15 0 -12 -9 2 -13 -9 -14 -35 -1 -21 -7 -42 -15 -46
-14 -9 -14 -20 2 -39 8 -10 7 -12 -3 -10 -10 2 -13 -7 -11 -36 1 -21 -1 -36
-6 -33 -6 4 -10 0 -10 -8 0 -8 5 -11 11 -8 6 4 6 0 -1 -8 -7 -8 -13 -33 -14
-54 -1 -22 -5 -44 -8 -50 -12 -20 -9 -490 3 -497 8 -6 8 -8 0 -8 -12 0 -13
-45 -1 -56 4 -4 2 -13 -4 -21 -9 -10 -8 -13 2 -13 11 0 11 -2 -1 -10 -11 -7
-11 -10 -2 -10 9 0 10 -5 2 -19 -7 -14 -6 -21 3 -24 9 -3 8 -8 -3 -22 -10 -12
-10 -16 -2 -11 10 6 13 -3 12 -36 -1 -82 0 -88 13 -88 8 0 7 -3 -2 -9 -13 -8
-13 -12 0 -27 12 -16 12 -17 -1 -9 -12 7 -13 6 -3 -6 7 -8 12 -24 12 -34 1
-80 3 -105 12 -100 5 4 5 -5 -1 -20 -7 -18 -7 -24 1 -19 6 4 10 -1 8 -12 -1
-11 1 -26 4 -34 4 -8 8 -24 10 -35 1 -11 7 -26 11 -34 7 -11 6 -12 -5 -6 -12
7 -12 6 -1 -7 7 -8 10 -23 6 -32 -3 -9 -2 -16 3 -16 8 0 13 -26 13 -78 0 -16
4 -21 13 -16 7 5 6 0 -3 -11 -10 -13 -11 -16 -2 -11 9 5 13 3 11 -5 -4 -32 1
-50 14 -43 9 5 9 4 0 -6 -9 -10 -8 -18 3 -35 8 -12 16 -37 17 -56 2 -19 6 -39
9 -45 8 -13 20 -70 21 -101 1 -12 5 -19 9 -17 4 3 8 -6 8 -20 0 -14 5 -28 10
-31 6 -4 8 -10 5 -15 -3 -5 0 -12 6 -16 8 -5 9 -3 4 7 -5 8 -4 11 0 6 5 -4 10
-18 12 -30 2 -12 8 -23 13 -25 5 -2 6 -10 3 -18 -3 -8 0 -14 7 -14 6 0 9 -4 6
-9 -4 -5 -2 -11 4 -13 5 -1 11 -15 12 -30 1 -15 6 -24 10 -22 4 3 9 -2 9 -10
2 -26 6 -56 9 -63 1 -5 2 -12 1 -16 -1 -5 3 -6 9 -2 10 6 15 -14 11 -44 -2 -7
2 -10 7 -7 6 3 8 -2 5 -14 -3 -12 1 -22 10 -26 9 -3 13 -13 9 -26 -3 -14 -1
-19 6 -14 7 4 12 1 12 -9 0 -10 5 -13 13 -9 7 5 6 0 -3 -11 -9 -11 -10 -16 -2
-11 8 5 12 0 12 -13 0 -12 5 -21 11 -21 5 0 7 -5 4 -11 -4 -6 1 -17 11 -25 11
-9 13 -12 6 -9 -11 6 -11 3 0 -16 7 -13 16 -26 19 -29 7 -6 23 -62 21 -72 -1
-4 6 -4 16 -1 15 6 15 5 3 -10 -12 -16 -8 -22 12 -18 5 1 5 -4 1 -10 -3 -6 -3
-14 2 -18 5 -3 14 -14 19 -24 6 -10 23 -26 40 -35 16 -9 37 -24 45 -33 8 -9
23 -15 32 -13 11 1 15 -3 11 -12 -3 -8 1 -14 8 -14 7 0 9 -3 6 -7 -4 -3 1 -12
11 -20 9 -8 11 -12 5 -8 -17 8 -16 0 1 -18 8 -7 16 -25 18 -38 1 -13 12 -32
22 -42 10 -9 16 -17 12 -17 -4 0 2 -10 13 -22 11 -11 18 -25 16 -29 -3 -4 4
-10 15 -14 11 -3 20 -12 20 -20 0 -7 15 -22 32 -34 18 -11 32 -23 31 -26 -7
-13 -2 -26 7 -20 6 3 10 1 10 -6 0 -7 3 -10 6 -6 8 8 33 -16 27 -25 -2 -5 3
-8 11 -8 9 0 16 -6 16 -13 0 -7 9 -18 20 -25 11 -7 20 -20 20 -30 0 -14 2 -15
10 -2 8 12 10 11 10 -7 0 -16 6 -23 20 -23 11 0 19 -4 17 -8 -1 -4 10 -20 25
-34 15 -14 25 -28 21 -31 -3 -4 1 -7 10 -7 9 0 23 -9 31 -21 9 -14 19 -18 28
-13 10 6 11 5 1 -7 -10 -12 -8 -15 9 -16 21 -2 84 -61 80 -76 -1 -4 1 -6 5 -6
5 1 15 1 23 0 13 -1 13 -2 0 -11 -12 -8 -11 -10 8 -10 13 0 22 -6 22 -15 0 -9
6 -12 18 -8 9 3 14 3 11 -1 -10 -11 36 -56 57 -57 12 0 14 -3 6 -6 -9 -3 0
-18 27 -43 22 -21 37 -41 33 -46 -4 -4 -2 -4 5 -1 6 4 18 0 26 -8 9 -8 20 -15
25 -15 6 0 12 -7 16 -15 3 -8 11 -14 18 -13 7 2 12 -2 11 -9 -2 -7 4 -10 12
-7 8 4 15 1 15 -5 0 -6 9 -11 21 -11 13 0 18 -4 13 -12 -5 -8 -2 -9 9 -5 12 4
17 1 17 -10 0 -9 3 -14 6 -10 4 3 13 -1 22 -9 8 -9 24 -13 34 -11 17 5 17 3 6
-11 -8 -9 -8 -13 -1 -9 13 8 45 -2 39 -12 -3 -4 5 -8 17 -8 11 -1 25 -9 29
-18 5 -8 17 -15 26 -15 10 0 24 -9 31 -19 8 -11 23 -18 33 -16 10 2 16 0 13
-6 -4 -5 1 -9 9 -9 9 0 16 -5 16 -11 0 -5 4 -7 10 -4 5 3 10 1 10 -5 0 -6 4
-8 10 -5 5 3 10 2 10 -3 0 -6 7 -13 16 -16 10 -4 13 -2 9 7 -4 6 0 4 8 -6 11
-14 16 -15 20 -5 3 8 6 6 6 -6 1 -12 6 -16 16 -12 8 3 15 1 15 -4 0 -6 7 -10
15 -10 8 0 15 -5 15 -11 0 -5 4 -7 10 -4 6 3 10 1 10 -5 0 -7 7 -10 15 -6 8 3
15 0 15 -7 0 -7 11 -17 25 -24 14 -6 23 -7 19 -2 -3 5 2 6 10 3 9 -3 16 -10
16 -15 0 -5 13 -9 29 -9 19 0 35 -8 44 -21 11 -15 16 -17 20 -7 4 10 6 10 6 1
1 -7 8 -13 16 -13 8 0 15 -4 15 -10 0 -5 7 -7 15 -4 10 4 15 0 15 -11 0 -9 4
-14 9 -10 5 3 16 -2 24 -10 12 -11 17 -12 20 -2 4 9 6 9 6 0 1 -8 14 -13 31
-13 17 0 30 -5 30 -11 0 -6 9 -9 20 -6 12 3 20 0 20 -8 0 -8 7 -11 18 -8 10 2
29 -6 45 -21 15 -14 27 -21 27 -16 0 6 5 10 11 10 5 0 7 -6 3 -12 -5 -8 0 -7
11 2 14 11 17 12 11 1 -6 -9 -5 -12 5 -9 8 3 20 -2 27 -11 8 -9 11 -10 7 -3
-3 6 -1 12 4 12 6 0 11 -3 11 -7 0 -5 11 -13 25 -20 14 -6 23 -7 19 -2 -3 5 2
6 10 3 9 -3 13 -11 9 -18 -4 -6 2 -4 12 4 14 11 17 11 11 1 -7 -10 -3 -12 13
-6 13 4 21 2 21 -5 0 -6 4 -9 9 -5 5 3 16 -2 25 -10 8 -8 26 -16 40 -17 14 -1
26 -5 26 -9 0 -3 12 -5 28 -5 15 1 36 -5 46 -14 17 -13 18 -13 11 0 -8 13 -7
13 8 1 12 -10 17 -10 17 -2 0 8 6 7 16 -3 18 -19 38 -21 27 -3 -4 7 2 6 17 -4
14 -8 40 -14 58 -12 22 2 31 -1 26 -8 -5 -8 -2 -9 11 -2 20 11 55 6 55 -8 0
-5 5 -9 11 -9 5 0 8 4 4 9 -3 6 4 9 15 8 11 -1 20 -6 20 -12 0 -5 4 -4 9 4 6
9 10 10 16 2 5 -9 10 -9 21 0 11 9 14 9 14 -1 0 -10 3 -10 15 0 12 10 15 9 16
-6 0 -18 1 -18 9 1 5 11 9 14 9 6 1 -11 4 -11 18 0 11 10 14 10 9 2 -7 -13 3
-17 36 -14 9 1 19 -3 23 -9 4 -7 12 -7 26 0 13 7 19 7 19 0 0 -5 5 -10 11 -10
5 0 7 6 3 13 -6 9 -4 9 7 0 17 -17 53 -17 43 0 -6 9 -4 9 7 -1 18 -16 63 -16
53 1 -6 9 -5 9 7 0 9 -8 51 -12 112 -12 54 0 102 -3 107 -6 5 -3 11 -1 14 3 3
5 18 7 32 4 21 -4 25 -2 19 9 -6 11 -5 12 6 2 7 -7 21 -13 32 -13 11 0 16 5
12 13 -4 6 1 3 9 -7 9 -12 16 -14 16 -7 0 8 7 10 21 6 12 -4 19 -3 16 2 -3 5
3 9 13 9 10 0 16 -4 13 -9 -7 -12 30 -4 40 8 4 6 10 5 16 -4 8 -12 12 -12 24
-2 12 9 16 9 20 -1 4 -10 6 -10 6 0 1 6 8 12 17 12 9 0 12 -5 8 -13 -5 -8 -3
-8 9 2 9 7 28 11 42 9 14 -3 25 -1 25 3 0 5 6 6 14 3 8 -3 17 -1 21 5 4 8 12
8 27 0 17 -9 20 -9 16 3 -5 11 8 14 63 13 38 0 69 3 69 8 0 5 18 7 39 5 23 -2
37 1 34 6 -4 5 1 7 10 3 9 -3 18 -1 20 6 3 9 8 8 21 -2 14 -12 16 -12 10 2 -4
12 -1 14 14 10 11 -2 23 0 26 6 4 6 12 11 17 11 6 0 7 -6 3 -13 -9 -13 26 11
38 28 5 6 8 5 8 -2 0 -7 5 -13 11 -13 6 0 9 7 5 15 -3 10 1 14 12 13 39 -3 63
2 56 13 -4 8 0 9 15 4 12 -4 21 -2 21 4 0 16 21 13 43 -7 20 -17 20 -17 2 11
l-18 28 26 -10 c21 -8 25 -7 21 3 -6 17 12 31 21 16 10 -16 25 -11 18 6 -5 14
-3 15 17 4 12 -7 20 -7 16 -2 -8 13 9 24 38 27 36 4 37 5 30 17 -4 6 -3 8 4 4
6 -3 13 -2 17 4 3 5 15 10 26 10 10 0 19 5 19 10 0 12 22 9 32 -5 5 -6 8 -3 8
7 0 16 15 19 36 5 7 -4 11 0 10 10 0 10 4 18 11 18 6 0 15 3 19 7 4 4 13 3 19
-2 9 -7 17 -5 26 7 13 16 12 17 -3 4 -12 -9 -18 -10 -18 -2 0 6 3 11 8 12 4 0
16 2 27 4 10 2 26 -1 35 -8 12 -9 13 -9 3 3 -18 20 -16 35 3 20 8 -8 14 -9 13
-4 -4 21 2 26 18 13 11 -10 14 -10 9 -1 -4 7 -1 12 9 12 8 0 18 7 21 15 4 8
10 13 14 10 5 -3 15 2 23 10 10 10 17 11 19 4 2 -7 11 -5 22 7 22 21 70 48 61
34 -4 -6 -2 -10 3 -10 6 0 13 7 16 16 3 8 10 12 16 9 6 -3 13 1 16 9 3 9 12
16 19 16 7 0 24 10 39 21 15 12 30 19 33 15 3 -3 14 6 25 19 23 30 65 55 53
33 -3 -7 1 -4 10 7 9 11 21 19 26 17 5 -1 12 5 15 13 3 8 9 13 13 11 4 -3 13
-1 21 5 11 6 12 9 2 9 -7 0 -1 11 15 24 18 16 36 22 53 20 19 -4 22 -2 10 6
-13 8 -11 11 8 16 12 4 22 12 22 20 0 7 4 16 10 19 6 4 7 -1 4 -12 -5 -17 -5
-17 9 -1 8 10 17 15 20 11 4 -3 7 1 7 10 0 9 4 19 10 22 6 3 7 -1 4 -12 -4
-14 -3 -14 7 2 7 11 26 33 43 48 17 16 30 33 28 39 -1 5 2 7 8 3 15 -9 41 14
33 29 -4 6 2 4 12 -4 11 -9 16 -10 11 -2 -4 7 -1 15 8 18 9 3 14 10 11 14 -3
5 0 12 6 16 8 4 9 3 5 -4 -16 -26 10 -10 29 18 19 28 20 28 39 12 14 -13 17
-13 11 -2 -10 17 -16 45 -8 37 7 -8 43 25 37 34 -2 4 4 6 16 4 11 -2 19 -1 19
3 -4 23 3 33 17 28 9 -3 12 -2 8 5 -7 12 29 49 48 49 9 0 9 3 -2 10 -13 9 -7
14 13 11 4 0 7 4 7 10 0 5 6 7 13 3 7 -5 7 -2 -2 10 -12 15 -12 17 0 14 8 -2
13 2 12 9 -2 8 4 10 14 6 11 -4 14 -3 9 5 -4 8 0 12 11 12 15 0 16 2 3 10 -13
9 -13 10 0 10 8 0 26 16 40 34 15 21 30 32 40 28 8 -3 12 -2 8 3 -4 4 -2 13 5
21 33 37 37 45 31 57 -5 7 0 5 11 -3 15 -12 17 -12 10 -1 -6 11 -4 13 10 7 16
-6 16 -4 4 10 -11 13 -11 18 -2 21 7 3 13 11 13 19 0 9 4 13 8 10 4 -2 14 -1
22 5 11 6 12 9 2 9 -7 0 -10 5 -7 10 4 6 9 9 13 7 4 -2 15 4 25 15 17 17 11
26 -9 10 -5 -4 1 3 13 16 13 13 23 27 23 32 0 5 7 6 17 3 11 -4 14 -3 9 6 -4
6 1 19 11 29 11 9 14 15 8 12 -6 -3 -2 3 10 14 11 10 19 24 17 31 -1 7 5 15
13 19 9 3 13 11 9 18 -5 8 -2 9 10 5 14 -5 17 -3 12 8 -3 8 -1 15 4 15 9 0 80
101 80 115 0 4 8 14 18 22 11 10 12 12 2 8 -8 -4 -6 0 4 9 10 8 23 13 27 10 5
-3 6 2 3 10 -3 9 -2 16 4 16 5 0 12 10 15 22 5 18 8 19 21 8 11 -8 16 -9 16
-1 0 6 -5 11 -11 11 -5 0 -7 5 -3 12 4 7 3 8 -4 4 -7 -4 -12 -2 -12 3 0 6 4
11 10 11 5 0 9 6 7 13 -1 6 4 11 12 9 12 -3 12 -1 1 13 -11 14 -11 16 1 13 8
-2 14 5 14 17 0 12 7 20 16 19 11 -1 15 6 13 22 -1 13 1 22 4 20 4 -2 16 8 27
23 18 24 18 25 0 11 -17 -14 -18 -14 -7 6 6 12 8 25 4 30 -4 5 0 3 8 -3 13
-10 15 -8 14 15 0 15 6 33 15 40 12 11 13 12 1 6 -11 -6 -10 -2 3 13 9 11 14
23 11 26 -4 4 -1 13 5 21 7 8 9 21 5 28 -6 9 -3 9 9 -1 15 -12 17 -12 11 3 -4
9 0 18 9 22 9 3 14 14 12 25 -2 11 2 22 10 26 8 3 15 11 15 19 0 8 5 14 10 14
6 0 10 5 10 11 0 5 -6 7 -12 3 -9 -6 -9 -3 1 9 7 9 11 23 8 31 -3 8 4 27 16
42 12 16 17 25 11 21 -6 -3 -11 0 -11 8 0 8 4 12 9 9 4 -3 8 2 8 11 0 10 5 13
13 9 8 -5 8 -2 -2 9 -8 11 -9 17 -3 17 6 0 9 7 6 15 -4 9 0 15 7 15 12 0 12 2
1 9 -12 7 -12 12 0 32 7 13 18 27 23 31 6 5 5 8 -2 8 -7 0 -13 5 -13 11 0 5 5
7 10 4 6 -3 10 4 10 15 0 14 5 20 13 17 8 -3 13 9 14 37 2 22 8 43 13 44 7 3
6 10 -2 20 -11 13 -11 14 1 7 11 -6 13 -4 8 8 -3 10 -2 17 4 17 6 0 7 5 4 10
-3 6 -2 10 3 10 6 0 8 10 4 22 -4 15 -2 19 8 13 10 -6 12 0 8 24 -3 21 0 31 9
31 7 0 13 5 13 11 0 5 -6 7 -12 3 -9 -5 -9 -2 1 9 11 14 11 17 0 17 -8 1 -3 8
11 16 14 8 18 13 9 11 -9 -3 -16 1 -16 9 0 8 5 14 11 14 6 0 4 5 -4 10 -8 5
-10 10 -4 10 7 0 10 13 9 31 -2 22 1 29 11 25 19 -7 18 4 -2 19 -14 10 -14 13
-2 26 8 8 14 24 13 37 -1 13 2 25 6 28 5 2 4 17 -2 31 -7 18 -6 30 1 37 8 8 9
5 5 -9 -5 -16 -5 -17 3 -5 6 8 8 19 4 24 -12 21 -8 46 7 47 10 0 12 2 4 6 -17
6 -17 35 0 52 10 11 7 12 -13 7 -14 -3 -19 -3 -12 0 6 3 12 13 12 21 0 12 3
13 14 4 10 -8 16 -9 21 -1 4 6 1 9 -7 8 -7 -2 -12 3 -10 10 1 8 -2 11 -8 7 -5
-3 -10 -2 -10 4 0 5 6 12 13 14 10 4 10 6 0 6 -8 1 -13 14 -13 34 0 24 3 28
10 17 5 -8 10 -11 10 -6 0 5 -8 18 -17 29 -10 11 -12 17 -5 13 10 -6 11 -1 7
17 -4 14 -2 28 4 31 6 4 11 13 11 19 0 8 -3 8 -9 -1 -6 -10 -10 -7 -13 12 -3
14 -2 23 2 21 5 -3 10 2 14 10 3 8 2 14 -2 14 -19 -3 -26 2 -13 10 10 7 11 13
2 30 -9 16 -9 21 1 21 11 0 11 2 0 8 -9 7 -10 15 -3 35 7 18 7 28 -1 33 -7 5
-8 2 -3 -7 8 -12 6 -12 -8 0 -18 14 -23 26 -8 16 5 -3 12 -1 16 5 3 5 1 10 -5
10 -7 0 -8 6 -2 17 6 9 6 29 2 45 -5 16 -5 30 1 34 6 3 6 11 2 17 -5 7 -8 21
-8 32 0 11 -4 23 -10 27 -6 5 -5 8 3 8 10 0 10 5 1 21 -9 17 -8 20 2 14 9 -6
10 -3 5 11 -14 34 -15 85 -3 77 9 -5 9 -3 2 8 -6 8 -12 28 -13 44 -2 23 -1 27
7 15 6 -8 11 -10 11 -4 0 5 -5 15 -12 22 -11 11 -18 48 -19 97 0 11 5 21 11
23 6 2 2 11 -10 19 -20 14 -20 16 -5 33 12 14 13 20 4 26 -8 4 -10 3 -5 -4 4
-7 3 -12 -2 -12 -5 0 -9 15 -10 34 -2 44 -5 60 -15 67 -4 3 -8 27 -9 52 0 26
-5 47 -10 47 -5 0 -4 8 1 19 8 15 7 20 -5 25 -8 3 -13 10 -10 14 3 5 -1 21 -9
36 -8 14 -10 24 -5 21 12 -8 6 21 -9 39 -7 9 -10 16 -5 16 4 0 3 5 -3 11 -6 6
-9 18 -6 27 4 10 2 13 -5 8 -16 -10 -15 7 0 22 10 10 8 14 -11 19 -17 4 -19 8
-9 14 11 7 11 9 -1 9 -10 0 -11 3 -2 14 9 11 9 16 0 22 -8 5 -9 3 -4 -6 5 -9
4 -11 -3 -6 -9 5 -9 13 -2 26 7 13 7 21 -2 26 -7 5 -8 3 -3 -7 5 -8 4 -11 0
-6 -8 7 -15 46 -16 90 0 13 -5 17 -17 12 -13 -5 -14 -3 -5 6 7 7 9 19 3 34 -5
13 -6 26 -3 29 4 3 1 6 -5 6 -7 0 -12 15 -12 35 0 20 -6 38 -12 40 -7 3 -14
17 -15 31 0 14 -6 31 -13 38 -8 8 -9 6 -4 -9 4 -11 4 -17 0 -13 -4 3 -8 12
-10 20 -1 7 -12 29 -26 48 -13 18 -18 30 -10 25 8 -5 5 4 -8 19 -12 16 -19 32
-16 37 3 5 1 9 -4 9 -9 0 -25 37 -23 53 1 4 -4 7 -9 7 -6 0 -10 7 -10 15 0 8
-4 15 -10 15 -5 0 -10 9 -10 21 0 13 -4 18 -12 13 -9 -5 -9 -3 1 9 11 14 11
18 -2 23 -9 3 -13 12 -10 20 3 8 -1 22 -9 32 -25 29 -33 46 -17 38 8 -4 3 2
-10 13 -13 12 -18 21 -12 21 8 0 8 4 -1 14 -7 8 -16 12 -19 10 -3 -2 -6 3 -7
11 -1 8 -3 21 -4 29 -1 8 -6 14 -12 13 -6 -1 -10 4 -9 11 3 10 -8 16 -27 14
-3 0 -7 11 -8 24 -1 14 -13 36 -26 49 -14 13 -27 34 -31 45 -3 11 -13 20 -21
20 -8 0 -13 4 -10 8 6 10 -30 53 -59 71 -14 9 -15 11 -3 7 12 -3 15 -1 11 10
-3 8 -12 13 -19 10 -7 -3 -16 4 -19 15 -4 10 -10 17 -15 14 -5 -3 -19 8 -31
24 -12 17 -27 27 -32 24 -6 -4 -8 0 -4 9 4 11 -1 18 -15 21 -11 3 -17 10 -13
16 3 7 -2 11 -14 11 -14 0 -19 5 -16 19 3 14 -1 18 -11 14 -13 -5 -19 8 -14
32 1 6 -2 7 -6 3 -4 -5 -15 6 -25 22 -11 17 -23 30 -29 30 -18 0 -48 33 -43
46 3 8 0 14 -7 14 -6 0 -8 -4 -5 -10 3 -5 -1 -10 -10 -10 -9 0 -14 4 -10 9 3
5 1 12 -5 16 -6 4 -8 10 -5 15 3 4 -3 14 -12 21 -12 10 -14 10 -9 2 4 -7 2
-13 -3 -13 -6 0 -11 7 -11 15 0 8 -7 15 -16 15 -8 0 -12 5 -9 10 3 6 -1 10
-10 10 -9 0 -13 5 -10 10 3 6 -1 10 -10 10 -9 0 -14 4 -11 9 6 9 -31 25 -49
21 -5 -1 -7 2 -3 5 12 13 -12 45 -33 45 -11 0 -18 4 -14 9 3 5 -4 12 -15 16
-11 3 -20 14 -20 23 0 15 -2 15 -10 2 -9 -13 -10 -13 -11 0 -1 8 -1 19 0 24 1
5 -6 3 -16 -4 -10 -8 -15 -10 -11 -6 5 5 -2 14 -15 21 -12 6 -21 16 -20 21 1
9 -22 35 -32 34 -3 0 -5 3 -4 8 0 4 -10 10 -23 13 -13 3 -22 11 -21 17 2 6 -3
9 -11 6 -8 -3 -17 0 -21 5 -3 6 -12 8 -18 4 -7 -4 -6 1 2 11 8 9 10 16 5 15
-26 -5 -54 2 -52 14 2 6 -3 11 -9 9 -7 -1 -13 3 -13 9 0 5 -4 7 -10 4 -5 -3
-10 0 -10 8 0 8 -11 18 -25 21 -14 4 -23 11 -20 15 3 5 -5 7 -17 3 -14 -3 -19
-2 -14 6 5 8 -1 12 -14 12 -12 0 -18 5 -15 10 3 6 -4 10 -17 10 -18 0 -20 2
-8 10 12 8 10 10 -8 10 -13 0 -21 4 -18 9 7 11 -22 23 -35 15 -5 -3 -9 2 -9
11 0 9 -4 13 -10 10 -5 -3 -10 -1 -10 6 0 8 -4 8 -15 -1 -13 -11 -14 -10 -9 4
5 12 2 15 -12 9 -12 -4 -15 -3 -10 5 5 8 0 12 -13 12 -12 0 -21 5 -21 11 0 6
-7 9 -14 6 -11 -4 -13 -1 -9 10 4 11 3 14 -5 9 -7 -4 -15 -1 -18 8 -3 9 -10
16 -16 16 -5 0 -6 -5 -2 -12 4 -7 3 -8 -4 -4 -7 4 -12 14 -12 22 0 8 -4 13 -8
10 -5 -3 -24 7 -42 22 -18 15 -33 25 -34 22 -2 -3 -10 3 -20 13 -10 9 -22 15
-27 12 -5 -4 -9 -1 -9 4 0 6 -7 11 -15 11 -9 0 -18 7 -21 15 -4 8 -10 15 -16
15 -5 0 -7 -4 -3 -10 3 -5 -7 -3 -21 5 -15 8 -31 12 -36 9 -4 -3 -5 2 -2 11 4
9 3 15 -2 14 -20 -3 -45 2 -41 9 3 4 -9 8 -26 9 -17 1 -34 8 -38 14 -5 8 -8 7
-12 -2 -4 -10 -6 -9 -6 3 -1 11 -6 15 -16 12 -8 -4 -12 -11 -8 -17 3 -6 1 -7
-5 -3 -7 4 -12 14 -12 23 0 13 -2 14 -17 2 -14 -12 -16 -12 -8 0 6 11 4 13
-10 7 -15 -5 -16 -4 -6 8 10 12 9 14 -8 9 -14 -3 -23 1 -27 12 -5 13 -9 14
-15 3 -7 -10 -9 -10 -9 0 0 6 -7 12 -16 12 -8 0 -13 4 -10 8 3 5 -1 9 -9 9 -8
0 -12 -3 -10 -7 2 -4 -2 -7 -10 -7 -8 0 -12 4 -9 9 3 4 -13 8 -35 8 -23 0 -41
5 -41 11 0 5 -5 7 -12 3 -6 -4 -17 1 -24 10 -7 10 -15 13 -18 7 -4 -7 -15 -7
-30 -1 -13 5 -27 6 -31 2 -4 -4 -6 -2 -5 3 5 21 -1 25 -19 16 -14 -8 -23 -6
-38 9 -12 10 -23 16 -27 13 -3 -3 -17 2 -32 12 -15 9 -23 12 -20 6 4 -6 0 -11
-9 -11 -10 0 -13 5 -9 13 5 7 0 6 -11 -3 -17 -14 -18 -13 -12 4 6 14 4 17 -5
10 -12 -9 -32 -10 -50 -4 -5 1 -12 4 -18 5 -5 1 -13 4 -17 5 -20 6 -39 4 -45
-5 -5 -6 -8 -5 -8 2 0 7 -7 10 -17 6 -9 -4 -14 -2 -10 3 3 6 -7 9 -24 8 -16
-1 -29 1 -29 6 0 4 -18 6 -40 5 -22 -1 -40 2 -40 6 0 5 -11 4 -25 -1 -20 -8
-27 -6 -31 5 -4 8 -10 15 -16 15 -5 0 -6 -5 -2 -11 5 -8 1 -8 -14 0 -27 14
-35 14 -26 -1 6 -10 5 -10 -7 -1 -8 7 -54 13 -102 15 -48 2 -87 5 -87 8 0 3
-33 5 -73 5 -39 0 -75 5 -79 10 -5 6 -8 4 -8 -5 0 -13 -1 -13 -10 0 -5 8 -10
10 -10 5z"/>
<path d="M4838 8053 c7 -3 16 -2 19 1 4 3 -2 6 -13 5 -11 0 -14 -3 -6 -6z"/>
<path d="M2355 7910 c-3 -5 -1 -10 4 -10 6 0 11 5 11 10 0 6 -2 10 -4 10 -3 0
-8 -4 -11 -10z"/>
<path d="M6476 7207 c3 -10 9 -15 12 -12 3 3 0 11 -7 18 -10 9 -11 8 -5 -6z"/>
<path d="M6673 6955 c0 -8 4 -12 9 -9 5 3 6 10 3 15 -9 13 -12 11 -12 -6z"/>
<path d="M7027 6679 c7 -7 15 -10 18 -7 3 3 -2 9 -12 12 -14 6 -15 5 -6 -5z"/>
<path d="M7020 6606 c0 -2 8 -10 18 -17 15 -13 16 -12 3 4 -13 16 -21 21 -21
13z"/>
<path d="M7430 5846 c0 -2 7 -7 16 -10 8 -3 12 -2 9 4 -6 10 -25 14 -25 6z"/>
<path d="M7469 5483 c-13 -16 -12 -17 4 -4 9 7 17 15 17 17 0 8 -8 3 -21 -13z"/>
<path d="M7625 5480 c-3 -6 1 -7 9 -4 18 7 21 14 7 14 -6 0 -13 -4 -16 -10z"/>
<path d="M7556 4802 c-3 -5 1 -9 9 -9 8 0 12 4 9 9 -3 4 -7 8 -9 8 -2 0 -6 -4
-9 -8z"/>
<path d="M7593 4645 c0 -8 4 -12 9 -9 5 3 6 10 3 15 -9 13 -12 11 -12 -6z"/>
<path d="M7666 4398 c3 -5 10 -6 15 -3 13 9 11 12 -6 12 -8 0 -12 -4 -9 -9z"/>
<path d="M7809 4203 c-13 -16 -12 -17 4 -4 16 13 21 21 13 21 -2 0 -10 -8 -17
-17z"/>
<path d="M7835 4049 c-4 -6 -5 -12 -2 -15 2 -3 7 2 10 11 7 17 1 20 -8 4z"/>
<path d="M7595 3989 c-4 -6 -5 -12 -2 -15 2 -3 7 2 10 11 7 17 1 20 -8 4z"/>
<path d="M7110 2521 c0 -6 4 -13 10 -16 6 -3 7 1 4 9 -7 18 -14 21 -14 7z"/>
<path d="M7170 2281 c0 -6 4 -13 10 -16 6 -3 7 1 4 9 -7 18 -14 21 -14 7z"/>
<path d="M7110 2241 c0 -6 4 -12 8 -15 5 -3 9 1 9 9 0 8 -4 15 -9 15 -4 0 -8
-4 -8 -9z"/>
<path d="M6750 2039 c0 -5 5 -7 10 -4 6 3 10 8 10 11 0 2 -4 4 -10 4 -5 0 -10
-5 -10 -11z"/>
<path d="M6786 1922 c-2 -4 4 -8 14 -8 10 0 16 4 14 8 -3 4 -9 8 -14 8 -5 0
-11 -4 -14 -8z"/>
<path d="M6601 1896 c-9 -11 -9 -16 0 -22 7 -4 9 -3 5 4 -3 6 2 15 11 21 10 6
13 11 7 11 -6 0 -17 -6 -23 -14z"/>
<path d="M6550 1801 c0 -6 4 -13 10 -16 6 -3 7 1 4 9 -7 18 -14 21 -14 7z"/>
<path d="M1236 1687 c3 -10 9 -15 12 -12 3 3 0 11 -7 18 -10 9 -11 8 -5 -6z"/>
<path d="M6273 1405 c0 -8 4 -12 9 -9 5 3 6 10 3 15 -9 13 -12 11 -12 -6z"/>
<path d="M5490 1021 c0 -6 4 -13 10 -16 6 -3 7 1 4 9 -7 18 -14 21 -14 7z"/>
<path d="M5215 840 c-3 -5 -1 -10 4 -10 6 0 11 5 11 10 0 6 -2 10 -4 10 -3 0
-8 -4 -11 -10z"/>
<path d="M4460 686 c0 -2 8 -10 18 -17 15 -13 16 -12 3 4 -13 16 -21 21 -21
13z"/>
</g>
</svg>
